<svg width="489" height="560" viewBox="0 0 489 560" fill="none" xmlns="http://www.w3.org/2000/svg">
<path fill-rule="evenodd" clip-rule="evenodd" d="M192.192 347.08C192.508 340.349 193.581 333.794 195.414 327.42C203.232 308.927 211.828 290.492 221.201 272.12C227.485 264.942 232.787 256.988 237.109 248.261C243.151 247.106 249.108 245.511 254.981 243.473C260.97 243.065 266.343 244.293 271.102 247.153C265.051 247.841 259 248.529 252.949 249.217C247.904 249.007 243.675 250.406 240.263 253.415C239.322 257.979 238.925 262.619 239.073 267.332C228.848 266.769 224.561 271.851 226.214 282.575C224.181 279.51 222.885 279.657 222.324 283.017C223.456 284.771 224.508 286.49 225.478 288.171C213.595 312.032 207.044 337.583 205.827 364.824C204.268 387.82 205.742 410.62 210.25 433.226C220.069 462.23 238.984 480.291 266.993 487.412C273.918 493.164 282.072 495.912 291.455 495.656C294.532 494.625 296.074 492.612 296.08 489.617C297.809 489.421 299.538 489.224 301.267 489.028C306.357 491.406 311.544 490.816 316.826 487.259C313.341 492.465 308.436 495.779 302.109 497.201C292.608 498.737 283.052 499.364 273.443 499.082C271.526 497.462 269.611 495.843 267.695 494.223C259.203 494.635 251.189 493.25 243.654 490.066C237.719 483.39 231.013 477.722 223.536 473.059C214.598 456.488 205.906 440.021 197.457 423.656C194.707 413.906 192.767 403.559 191.637 392.621C189.548 377.12 189.733 361.94 192.192 347.08Z" fill="#B7CF26"/>
<path d="M310.989 495.338C297.385 501.21 288.116 500.89 273.504 499.137C230.56 493.985 210.868 459.885 194.261 417.963C168.144 352.029 217.278 257.685 240.952 241.796C264.626 225.906 271.105 231.674 285.67 241.796C303.097 253.907 308.178 284.391 318.551 311.226C328.161 336.088 332.165 354.595 337.293 379.62C344.263 413.636 359.23 433.915 344.527 462.523C336.023 479.068 327.544 488.192 310.989 495.338Z" fill="#B2D110"/>
<path fill-rule="evenodd" clip-rule="evenodd" d="M226.081 288.175C229.255 283.38 233.343 280.619 238.346 279.89C243.339 286.913 248.025 294.192 252.401 301.72C268.173 337.459 280.747 374.616 290.122 413.193C294.131 433.084 295.324 453.16 293.703 473.423C287.423 482.753 278.721 487.417 267.596 487.416C239.587 480.295 220.673 462.234 210.853 433.231C206.345 410.624 204.871 387.824 206.43 364.828C207.647 337.587 214.198 312.037 226.081 288.175Z" fill="#D0E54D"/>
<path fill-rule="evenodd" clip-rule="evenodd" d="M253.309 249.219C259.36 248.531 265.411 247.843 271.462 247.155C273.752 252.407 276.042 257.659 278.332 262.911C287.766 260.965 292.554 265.013 292.702 275.059C285.357 274.7 278.932 271.757 273.426 266.225C272.655 267.231 271.885 268.239 271.114 269.245C278.614 302.897 288.558 335.762 300.948 367.833C309.465 395.982 315.484 424.695 319.005 453.979C323.815 453.325 327.506 455.201 330.08 459.611C327.181 466.283 326.152 473.29 326.998 480.633C322.584 480.542 320.178 482.654 319.78 486.966C318.916 487.064 318.05 487.163 317.186 487.261C311.904 490.819 306.717 491.408 301.627 489.03C312.206 453.457 311.584 417.697 299.758 381.75C286.692 346.233 272.577 311.086 257.412 276.315C255.189 267.425 253.821 258.394 253.309 249.219Z" fill="#B6D419"/>
<path fill-rule="evenodd" clip-rule="evenodd" d="M240.466 253.419C243.06 253.124 245.653 252.829 248.246 252.535C248.944 263.519 250.499 274.367 252.911 285.079C271.581 320.127 285.883 357.088 295.818 395.962C299.605 415.743 301.663 435.723 301.992 455.897C302.38 467.656 300.477 478.897 296.284 489.621C296.277 492.616 294.735 494.628 291.658 495.66C282.275 495.916 274.121 493.168 267.196 487.416C278.321 487.416 287.024 482.753 293.303 473.423C294.924 453.159 293.731 433.084 289.722 413.193C280.347 374.616 267.774 337.458 252.001 301.72C247.625 294.191 242.939 286.913 237.946 279.89C232.943 280.618 228.855 283.379 225.681 288.175C224.711 286.494 223.659 284.775 222.527 283.021C223.088 279.661 224.384 279.513 226.417 282.579C224.764 271.855 229.051 266.773 239.277 267.336C239.129 262.623 239.525 257.983 240.466 253.419Z" fill="#B2D110"/>
<path fill-rule="evenodd" clip-rule="evenodd" d="M237.49 248.261C237.604 246.548 238.328 245.087 239.662 243.88C265.265 231.78 284.305 238.344 296.787 263.569C287.662 258.755 279.228 253.284 271.483 247.152C266.725 244.292 261.351 243.065 255.362 243.473C249.49 245.51 243.532 247.106 237.49 248.261Z" fill="#F7FAC9"/>
<path fill-rule="evenodd" clip-rule="evenodd" d="M240.783 253.418C244.195 250.409 248.423 249.01 253.468 249.219C253.981 258.394 255.348 267.425 257.572 276.315C272.736 311.086 286.852 346.233 299.917 381.75C311.743 417.697 312.365 453.457 301.786 489.03C300.057 489.227 298.329 489.424 296.6 489.62C300.793 478.896 302.696 467.654 302.308 455.896C301.979 435.722 299.921 415.742 296.134 395.961C286.199 357.087 271.897 320.126 253.227 285.078C250.815 274.366 249.26 263.518 248.562 252.533C245.969 252.828 243.376 253.123 240.783 253.418Z" fill="#91B503"/>
<path fill-rule="evenodd" clip-rule="evenodd" d="M271.7 247.154C279.444 253.285 287.879 258.756 297.004 263.57C300.158 268.724 303.313 273.878 306.468 279.032C307.744 294.534 311.834 308.768 318.738 321.736C322.154 329.961 323.955 338.943 324.138 348.685C324.699 354.133 325.26 359.582 325.822 365.031C331.87 393.793 334.864 422.854 334.803 452.209C336.608 460.363 335.63 467.825 331.861 474.593C330.214 479.973 327.132 483.998 322.611 486.67C321.747 486.768 320.881 486.866 320.018 486.965C320.416 482.653 322.822 480.541 327.236 480.631C326.39 473.289 327.419 466.281 330.318 459.609C327.744 455.2 324.053 453.324 319.243 453.978C315.722 424.694 309.703 395.98 301.186 367.832C288.796 335.76 278.852 302.896 271.352 269.243C272.123 268.238 272.893 267.229 273.664 266.224C279.17 271.755 285.595 274.699 292.94 275.057C292.792 265.011 288.004 260.964 278.57 262.91C276.28 257.658 273.99 252.406 271.7 247.154Z" fill="#CEE24C"/>
<path fill-rule="evenodd" clip-rule="evenodd" d="M306.308 279.033C308.581 285.208 311.396 291.318 314.756 297.366C316.884 305.343 318.159 313.467 318.578 321.738C311.675 308.769 307.585 294.535 306.308 279.033Z" fill="#EEF3B2"/>
<path fill-rule="evenodd" clip-rule="evenodd" d="M334.608 452.209C334.67 422.854 331.676 393.793 325.627 365.031C329.223 371.386 332.132 378.406 334.356 386.088C337.896 407.716 340.571 429.462 342.388 451.324C339.795 451.619 337.202 451.914 334.608 452.209Z" fill="#BDCD52"/>
<path d="M226.867 356.4C226.867 352.25 227.957 349.728 230.706 347.063C231.712 346.087 234.773 346.769 236.034 346.769C241.984 346.769 249.255 350.746 251.252 357.845" stroke="#312F2F" stroke-width="6" stroke-linecap="round"/>
<path d="M285.983 355.351C285.983 347.594 286.303 343.776 293.239 341.384C297.35 339.966 301.664 338.886 305.545 341.384C307.796 342.833 309.953 345.938 309.953 349.116C309.953 351.42 309.77 353.69 310.366 355.85" stroke="#312F2F" stroke-width="6" stroke-linecap="round"/>
<path d="M248.32 388.164C250.83 388.44 253.224 388.622 255.577 389.748C256.508 390.193 257.724 390.957 258.681 391.214C261.037 391.848 263.272 391.667 265.686 391.889C269.231 392.215 272.834 392.951 276.321 391.83C278.1 391.259 279.283 389.631 280.976 388.956C282.062 388.523 282.629 388.277 283.235 387.108" stroke="#312F2F" stroke-width="6" stroke-linecap="round"/>
<path d="M323.646 387.108C327.268 382.074 330.783 377.036 333.927 371.568C335.408 368.99 336.612 366.401 338.424 364.177C341.323 360.621 343.154 355.623 345.813 351.859" stroke="#312F2F" stroke-width="6" stroke-linecap="round"/>
<path d="M206.422 369.815C197.115 363.374 187.5 357.329 178.714 349.863" stroke="#312F2F" stroke-width="6" stroke-linecap="round"/>
<path d="M168.226 346.538C171.006 347.367 173.784 348.262 176.539 349.199" stroke="#312F2F" stroke-width="6" stroke-linecap="round"/>
<path d="M177.761 339.888L177.761 349.865" stroke="#312F2F" stroke-width="6" stroke-linecap="round"/>
<path d="M175.663 352.524C172.139 352.524 169.732 352.542 166.796 355.185" stroke="#312F2F" stroke-width="6" stroke-linecap="round"/>
<path d="M343.67 339.222L343.67 353.189" stroke="#312F2F" stroke-width="6" stroke-linecap="round"/>
<path d="M346.53 353.19C349.091 350.423 353.041 349.361 355.952 347.204" stroke="#312F2F" stroke-width="6" stroke-linecap="round"/>
<path d="M346.53 351.861C346.891 346.686 347.2 344.616 349.302 340.554" stroke="#312F2F" stroke-width="6" stroke-linecap="round"/>
<path d="M255.219 494.34C255.219 499.375 255.726 504.745 254.51 509.599C253.319 514.349 252.376 520.367 250.068 524.511C249.047 526.345 248.499 529.179 246.231 529.451C244.12 529.703 241.756 529.564 239.66 529.388C232.639 528.798 226.168 526.105 219.764 522.938C219.229 522.673 215.693 521.617 215.506 520.61C214.967 517.704 217.234 514.208 218.686 512.336C220.709 509.729 223.463 509.63 226.256 509.63C229.95 509.63 234.309 510.089 237.715 512.021C239.023 512.763 241.26 513.59 242.183 515.01C243.351 516.807 245.936 517.984 246.704 519.823" stroke="#312F2F" stroke-width="6" stroke-linecap="round"/>
<path d="M289.318 492.854C288.703 499.843 287.89 506.487 287.89 513.501C287.89 515.237 289.64 517.087 290.164 518.79C291.052 521.681 292.902 523.87 293.813 526.692C294.797 529.739 296.74 534.442 299.419 535.868C302.727 537.629 304.747 538.848 308.622 538.736C312.204 538.632 318.717 536.16 320.231 531.599C321.391 528.105 319.524 526.123 317.19 524.716C315.666 523.798 314.063 521.59 312.43 521.084C309.763 520.258 306.377 520.963 303.65 520.67C300.614 520.343 297.599 520.383 294.554 520.383" stroke="#312F2F" stroke-width="6" stroke-linecap="round"/>
<path fill-rule="evenodd" clip-rule="evenodd" d="M355.312 90.5389C355.08 89.8352 354.849 89.1316 354.616 88.4279C356.811 85.4398 357.671 82.1323 357.198 78.506C357.641 78.0295 358.084 77.5536 358.527 77.077C358.112 68.9851 355.789 61.4772 351.556 54.554C349.626 51.1997 347.127 48.168 344.059 45.4604C349.347 50.2076 354.999 54.6134 361.016 58.6786C360.696 63.4264 362.854 66.109 367.492 66.7248C370.437 76.6307 367.259 83.1454 357.955 86.2681C357.24 87.8176 356.36 89.2412 355.312 90.5389Z" fill="#FAFDE9"/>
<path fill-rule="evenodd" clip-rule="evenodd" d="M326.614 35.7817C324.073 35.1074 321.61 35.3724 319.226 36.5775C318.772 36.1118 318.319 35.6467 317.865 35.181C313.646 35.47 309.39 35.7567 305.098 36.0417C304.644 35.576 304.191 35.111 303.737 34.6452C304.402 33.9307 305.067 33.2162 305.731 32.5017C304.237 30.7394 302.54 29.229 300.638 27.9711C298.654 29.2074 296.534 30.0575 294.277 30.5207C293.927 29.2596 293.8 27.9662 293.899 26.6396C298.29 25.5268 302.662 25.592 307.014 26.8344C307.545 28.5094 308.457 29.912 309.75 31.0402C306.587 34.2187 306.82 34.9224 310.446 33.1512C311.661 28.4985 312.785 28.7202 313.816 33.817C314.263 33.8115 314.713 33.8061 315.16 33.8007C315.15 32.8584 315.14 31.9175 315.129 30.9752C318.985 32.5683 322.813 34.1703 326.614 35.7817Z" fill="#FCFDF0"/>
<path fill-rule="evenodd" clip-rule="evenodd" d="M317.985 35.1825C312.114 38.5572 305.848 39.5748 299.187 38.2358C301.196 37.505 303.206 36.7742 305.216 36.0434C309.509 35.7583 313.765 35.4716 317.985 35.1825Z" fill="#ABC347"/>
<path fill-rule="evenodd" clip-rule="evenodd" d="M357.495 78.5063C357.969 82.1332 357.108 85.4413 354.913 88.4298C354.47 88.9065 354.027 89.3824 353.584 89.8591C354.078 85.8022 355.383 82.0182 357.495 78.5063Z" fill="#B0C55D"/>
<path fill-rule="evenodd" clip-rule="evenodd" d="M303.891 34.646C304.344 35.1117 304.797 35.5768 305.251 36.0426C303.241 36.7734 301.232 37.5042 299.222 38.2351C296.351 38.984 293.445 39.7257 290.503 40.46C293.328 38.8602 296.111 37.0609 298.851 35.0601C300.556 34.5845 302.235 34.4462 303.891 34.646Z" fill="#F6FBCE"/>
<path fill-rule="evenodd" clip-rule="evenodd" d="M352.181 92.6997C347.767 99.0965 342.563 104.929 336.569 110.197C334.706 111.39 332.81 112.237 330.88 112.738C338.536 106.882 345.635 100.202 352.181 92.6997Z" fill="#9BB336"/>
<path fill-rule="evenodd" clip-rule="evenodd" d="M351.854 54.5553C356.087 61.4785 358.411 68.9864 358.826 77.0783C358.382 77.5549 357.94 78.0308 357.496 78.5073C355.384 82.0186 354.08 85.802 353.586 89.8582C353.729 90.996 353.291 91.9431 352.272 92.7C345.727 100.202 338.627 106.882 330.972 112.739C330.528 113.215 330.086 113.691 329.642 114.168C329.189 113.702 328.736 113.237 328.282 112.771C318.989 104.671 308.939 97.8447 298.132 92.2945C306.449 99.4763 314.49 107.033 322.254 114.963C318.229 116.365 314.092 117.239 309.841 117.586C307.738 119.771 305.28 120.508 302.468 119.795C299.573 121.478 296.677 123.162 293.781 124.845C292.566 125.612 291.335 125.745 290.087 125.243C280.487 118.928 270.445 112.81 259.96 106.885C262.523 103.924 265.409 101.298 268.616 99.0094C287.446 87.4324 306.837 77.3074 326.79 68.6345C327.536 67.1546 327.193 66.5702 325.762 66.8807C322.366 68.2747 318.903 69.3755 315.375 70.1854C320.491 60.5374 325.881 51.1701 331.543 42.0842C330.636 41.1534 329.729 40.2219 328.822 39.2912C330.148 39.5733 331.492 39.557 332.857 39.2424C340.089 43.0173 346.422 48.1221 351.854 54.5553Z" fill="#9DC20B"/>
<path fill-rule="evenodd" clip-rule="evenodd" d="M290.472 40.4586C283.284 44.2213 276.379 48.3076 269.759 52.719C272.751 49.6888 275.405 46.3596 277.72 42.7321C280.706 40.3809 281.274 40.9633 279.42 44.4778C282.319 40.4752 286.003 39.135 290.472 40.4586Z" fill="#F4FADE"/>
<path fill-rule="evenodd" clip-rule="evenodd" d="M354.901 88.4268C355.133 89.1305 355.364 89.8342 355.597 90.5379C347.995 101.438 338.566 110.382 327.31 117.373C324.326 118.952 321.306 119.576 318.252 119.248C322.044 117.554 325.836 115.859 329.628 114.165C330.072 113.689 330.514 113.213 330.958 112.736C332.887 112.235 334.784 111.388 336.646 110.195C342.641 104.927 347.844 99.0944 352.258 92.6976C353.277 91.9407 353.715 90.9937 353.572 89.8559C354.015 89.3793 354.458 88.9034 354.901 88.4268Z" fill="#EDF4C1"/>
<path fill-rule="evenodd" clip-rule="evenodd" d="M327.835 112.769C326.141 114.646 324.131 115.377 321.806 114.961C314.042 107.031 306.002 99.4743 297.685 92.2924C308.491 97.8426 318.542 104.669 327.835 112.769Z" fill="#B9D511"/>
<path fill-rule="evenodd" clip-rule="evenodd" d="M298.843 38.2356C295.7 40.405 292.472 42.4454 289.159 44.3576C287.648 46.7412 285.991 48.9979 284.19 51.1292C283.283 50.1984 282.376 49.2669 281.469 48.3362C278.756 50.5725 275.747 52.1397 272.442 53.0373C268.76 56.7506 264.875 60.2126 260.787 63.4221C260.665 62.5638 260.769 61.7381 261.096 60.9457C259.918 61.9122 258.692 62.5155 257.417 62.7563C259.73 60.4366 262.171 58.2876 264.744 56.3095C266.029 54.5066 267.586 53.3108 269.412 52.7207C276.032 48.3093 282.936 44.223 290.125 40.4603C293.066 39.7261 295.972 38.9845 298.843 38.2356Z" fill="#91B023"/>
<path fill-rule="evenodd" clip-rule="evenodd" d="M264.997 56.3083C262.423 58.2868 259.981 60.436 257.669 62.7562C257.442 62.5236 257.215 62.2904 256.988 62.0578C259.189 59.2041 261.858 57.2874 264.997 56.3083Z" fill="#D5E290"/>
<path fill-rule="evenodd" clip-rule="evenodd" d="M328.589 39.2905C323.118 50.1615 317.858 61.0575 312.807 71.9791C305.481 75.3012 298.118 78.4521 290.719 81.4302C290.271 81.4357 289.822 81.4411 289.374 81.4465C289.692 79.704 289.785 77.936 289.652 76.1446C294.271 64.4227 298.063 52.4848 301.028 40.33C299.471 40.6378 298.021 41.2445 296.677 42.1488C294.531 44.8586 292.999 48.1743 292.079 52.095C291.15 62.4773 289.357 72.7429 286.7 82.8918C276.992 89.0975 266.734 93.9315 255.924 97.3932C256.829 87.8173 258.182 78.2635 259.981 68.7319C258.658 67.9029 257.749 66.7362 257.253 65.2324C255.605 66.2965 254.162 67.6089 252.925 69.1704C253.269 66.3382 254.588 63.9675 256.882 62.0578C257.109 62.2903 257.336 62.5235 257.562 62.756C258.837 62.5153 260.063 61.912 261.241 60.9454C260.914 61.7378 260.81 62.5635 260.932 63.4218C265.02 60.2123 268.905 56.7503 272.587 53.0371C275.892 52.1395 278.901 50.5722 281.614 48.3359C282.521 49.2667 283.428 50.1981 284.335 51.1289C286.136 48.9976 287.793 46.7409 289.304 44.3573C292.617 42.4451 295.845 40.4047 298.988 38.2353C305.649 39.5741 311.914 38.5567 317.784 35.1822C318.238 35.648 318.691 36.113 319.145 36.5788C322.496 36.611 325.644 37.5154 328.589 39.2905Z" fill="#9DC20A"/>
<path fill-rule="evenodd" clip-rule="evenodd" d="M327.847 112.769C328.301 113.235 328.754 113.7 329.207 114.166C325.415 115.86 321.623 117.555 317.831 119.249C312.282 120.927 306.697 122.643 301.075 124.397C299.509 124.651 297.942 124.906 296.376 125.16C292.784 126.466 289.1 127.805 285.324 129.179C284.257 129.314 283.247 129.208 282.294 128.862C284.957 128.205 287.41 126.998 289.652 125.241C290.9 125.743 292.131 125.61 293.346 124.843C296.242 123.16 299.138 121.476 302.033 119.793C304.845 120.506 307.303 119.769 309.406 117.584C313.657 117.238 317.794 116.363 321.819 114.962C324.143 115.377 326.153 114.646 327.847 112.769Z" fill="#94B324"/>
<path fill-rule="evenodd" clip-rule="evenodd" d="M317.849 119.25C316.447 121.197 314.669 122.631 312.516 123.554C308.786 124.748 304.978 125.03 301.092 124.398C306.714 122.645 312.3 120.928 317.849 119.25Z" fill="#E7F0C3"/>
<path fill-rule="evenodd" clip-rule="evenodd" d="M328.627 39.2904C329.534 40.2212 330.441 41.1526 331.348 42.0834C325.685 51.1693 320.296 60.5366 315.179 70.1846C318.708 69.3747 322.17 68.2739 325.567 66.8799C326.998 66.5695 327.341 67.1538 326.595 68.6337C306.642 77.3066 287.251 87.4316 268.421 99.0087C265.213 101.298 262.328 103.923 259.765 106.884C270.25 112.809 280.292 118.928 289.891 125.242C287.649 126.999 285.197 128.206 282.534 128.863C281.4 127.699 280.267 126.536 279.133 125.372C272.132 118.476 264.666 112.208 256.735 106.568C252.478 109.683 248.253 112.796 244.06 115.905C243.567 115.554 243.005 115.442 242.375 115.572C237.221 119.854 231.769 123.57 226.021 126.72C223.946 127.258 222.705 126.449 222.296 124.293C220.525 125.401 220.074 125.172 220.943 123.603C225.243 121.618 228.91 118.629 231.941 114.639C233.049 113.448 234.157 112.257 235.265 111.066C235.758 111.418 236.32 111.529 236.95 111.399C242.516 107.166 248.076 103.096 253.628 99.1874C254.532 89.5832 254.316 80.0477 252.979 70.583C253.422 70.1064 253.417 69.6359 252.963 69.1702C254.2 67.6088 255.643 66.2964 257.291 65.2323C257.787 66.736 258.696 67.9027 260.019 68.7317C258.22 78.2633 256.867 87.8171 255.962 97.393C266.772 93.9313 277.03 89.0973 286.738 82.8916C289.395 72.7428 291.188 62.4772 292.117 52.0949C293.037 48.1741 294.569 44.8585 296.715 42.1487C298.059 41.2444 299.509 40.6377 301.066 40.3299C298.101 52.4846 294.309 64.4226 289.69 76.1444C289.823 77.9358 289.73 79.7039 289.412 81.4463C289.86 81.4409 290.309 81.4355 290.757 81.4301C298.156 78.4519 305.519 75.3011 312.845 71.979C317.896 61.0573 323.156 50.1613 328.627 39.2904Z" fill="#B7D50F"/>
<path fill-rule="evenodd" clip-rule="evenodd" d="M237.447 78.5402C231.127 85.097 225.036 91.8822 219.177 98.8955C218.757 99.7441 218.654 100.569 218.868 101.372C216.742 103.22 215.196 105.358 214.231 107.786C212.73 110.803 210.967 113.651 208.944 116.328C208.589 114.86 208.46 113.33 208.558 111.74C210.325 109.364 212.092 106.988 213.86 104.612C209.551 107.642 205.213 110.638 200.844 113.6C199.87 114.294 198.973 114.305 198.155 113.632C200.019 112.323 201.458 110.776 202.475 108.988C204.579 108.719 206.362 107.756 207.823 106.097C209.872 102.887 212.193 99.916 214.787 97.1824C215.467 97.8806 216.147 98.5789 216.827 99.2771C220.934 95.0996 224.809 90.6959 228.451 86.0669C226.084 88.3604 223.528 90.3928 220.784 92.1646C226.727 83.3946 233.591 75.5404 241.373 68.6021C238.448 73.0317 235.47 77.4238 232.439 81.7798C234.037 80.3356 235.706 79.2557 237.447 78.5402Z" fill="#FBFDEF"/>
<path fill-rule="evenodd" clip-rule="evenodd" d="M296.669 125.159C295.432 126.721 293.989 128.033 292.341 129.098C289.487 129.504 286.809 130.479 284.302 132.021C282.868 132.396 281.631 132.057 280.592 131.006C281.257 130.291 281.921 129.577 282.586 128.862C283.539 129.207 284.549 129.314 285.616 129.179C289.393 127.805 293.077 126.466 296.669 125.159Z" fill="#F1F5C7"/>
<path fill-rule="evenodd" clip-rule="evenodd" d="M253.138 70.5828C254.475 80.0476 254.692 89.5831 253.788 99.1872C248.236 103.095 242.676 107.166 237.109 111.399C236.479 111.529 235.918 111.418 235.424 111.066C236.444 110.195 237.217 109.125 237.743 107.859C235.439 102.195 235.377 96.5442 237.557 90.9056C241.87 83.4066 247.064 76.6323 253.138 70.5828Z" fill="#9BC10B"/>
<path fill-rule="evenodd" clip-rule="evenodd" d="M256.89 62.0561C254.597 63.9658 253.277 66.3365 252.933 69.1687C253.387 69.6344 253.392 70.1048 252.949 70.5814C246.875 76.6309 241.68 83.4052 237.368 90.9043C235.188 96.5428 235.249 102.194 237.553 107.857C237.027 109.123 236.254 110.193 235.235 111.065C234.127 112.256 233.02 113.446 231.912 114.637C228.825 117.203 225.374 119.247 221.555 120.767C221.015 114.688 220.5 108.571 220.009 102.418C217.913 103.961 216.026 105.75 214.352 107.785C215.317 105.356 216.863 103.218 218.989 101.37C227.203 91.2185 235.838 81.4595 244.895 72.0917C248.894 68.747 252.892 65.4008 256.89 62.0561Z" fill="#88B308"/>
<path fill-rule="evenodd" clip-rule="evenodd" d="M278.87 125.372C277.863 125.582 276.972 126.064 276.196 126.817C272.389 125.565 268.465 125.495 264.425 126.606C260.898 124.95 257.19 124.17 253.304 124.268C249.779 121.96 246.61 119.173 243.797 115.905C247.99 112.796 252.215 109.683 256.472 106.567C264.403 112.207 271.869 118.476 278.87 125.372Z" fill="#9BC10B"/>
<path fill-rule="evenodd" clip-rule="evenodd" d="M244.788 72.0925C235.73 81.4603 227.095 91.2194 218.881 101.371C218.668 100.568 218.771 99.7433 219.19 98.8947C225.05 91.8813 231.141 85.0962 237.461 78.5393C239.602 75.79 242.045 73.6418 244.788 72.0925Z" fill="#CFE19B"/>
<path fill-rule="evenodd" clip-rule="evenodd" d="M276.551 126.816C277.59 128.508 277.151 129.455 275.237 129.658C274.977 129.099 274.859 128.511 274.882 127.896C273.096 129.039 271.2 129.887 269.193 130.437C268.934 129.879 268.816 129.291 268.838 128.675C266.438 130.142 264.424 130.402 262.794 129.455C261.603 130.744 260.721 132.167 260.151 133.726C257.252 134.425 256.68 133.371 258.435 130.567C256.808 130.679 255.922 131.632 255.776 133.425C251.374 133.701 247.582 135.396 244.4 138.508C243.839 137.692 243.164 137.466 242.375 137.826C241.325 136.525 240.081 135.48 238.642 134.692C234.528 132.497 230.249 130.665 225.804 129.195C225.327 128.236 225.43 127.41 226.113 126.719C231.862 123.569 237.313 119.852 242.467 115.571C243.097 115.441 243.659 115.552 244.152 115.904C246.965 119.172 250.134 121.96 253.659 124.267C257.545 124.17 261.253 124.949 264.78 126.605C268.82 125.494 272.744 125.564 276.551 126.816Z" fill="#87B302"/>
<path fill-rule="evenodd" clip-rule="evenodd" d="M278.954 125.37C280.088 126.534 281.221 127.698 282.355 128.862C281.69 129.576 281.025 130.291 280.361 131.005C279.74 130.248 278.952 129.905 277.996 129.974C275.681 131.048 273.337 131.901 270.962 132.532C265.067 133.409 259.255 134.892 253.526 136.981C253.305 137.219 253.083 137.458 252.862 137.696C249.928 138.303 247.017 138.575 244.128 138.508C247.311 135.395 251.103 133.701 255.505 133.425C255.651 131.632 256.537 130.679 258.164 130.567C256.409 133.371 256.981 134.424 259.879 133.725C260.45 132.167 261.332 130.743 262.523 129.455C264.152 130.401 266.166 130.142 268.566 128.675C268.544 129.291 268.662 129.878 268.922 130.437C270.929 129.886 272.825 129.039 274.61 127.896C274.588 128.511 274.706 129.099 274.966 129.657C276.88 129.455 277.318 128.508 276.28 126.816C277.056 126.063 277.947 125.581 278.954 125.37Z" fill="#89AF1E"/>
<path fill-rule="evenodd" clip-rule="evenodd" d="M271.332 132.533C266.402 133.715 261.831 136.007 257.62 139.411C256.113 139.093 254.871 138.284 253.895 136.983C259.624 134.894 265.436 133.411 271.332 132.533Z" fill="#EDF8CD"/>
<path fill-rule="evenodd" clip-rule="evenodd" d="M253.076 137.696C250.676 139.624 248.002 141.069 245.053 142.031C243.718 143.894 244.284 144.476 246.754 143.777C245.11 146.255 243.23 148.515 241.112 150.557C240.297 149.929 239.727 149.112 239.404 148.105C241.445 141.725 239.753 140.685 234.326 144.987C232.248 144.623 230.228 144.412 228.266 144.354C229.881 142.975 231.67 142.482 233.63 142.876C237.261 141.856 240.832 140.4 244.342 138.508C247.231 138.574 250.142 138.303 253.076 137.696Z" fill="#F8FBE8"/>
<path fill-rule="evenodd" clip-rule="evenodd" d="M244.065 138.51C240.555 140.402 236.983 141.859 233.352 142.879C234.793 142.099 236.127 141.14 237.356 140.004C239.214 140.068 240.775 139.343 242.04 137.828C242.83 137.468 243.505 137.694 244.065 138.51Z" fill="#B9CC55"/>
<path fill-rule="evenodd" clip-rule="evenodd" d="M214.435 107.784C215.473 108.631 216.269 109.682 216.823 110.935C217.33 115.205 218.384 119.314 219.984 123.26C213.892 127.604 208.117 132.383 202.656 137.599C202.42 136.424 202.182 135.25 201.945 134.075C203.416 130.126 204.941 126.104 206.521 122.01C207.727 120.177 208.602 118.282 209.148 116.326C211.171 113.649 212.934 110.802 214.435 107.784Z" fill="#88B113"/>
<path fill-rule="evenodd" clip-rule="evenodd" d="M208.852 116.328C208.306 118.285 207.43 120.18 206.224 122.013C205.936 119.737 206.812 117.842 208.852 116.328Z" fill="#E0EC98"/>
<path fill-rule="evenodd" clip-rule="evenodd" d="M232.001 114.638C228.969 118.629 225.302 121.617 221.003 123.602C220.134 125.171 220.585 125.401 222.355 124.292C222.764 126.448 224.006 127.258 226.081 126.72C225.397 127.411 225.294 128.237 225.771 129.196C230.216 130.666 234.495 132.498 238.609 134.693C240.049 135.481 241.293 136.526 242.342 137.827C241.077 139.341 239.516 140.067 237.658 140.003C236.69 139.947 235.683 140.077 234.636 140.393C230.347 136.863 226.604 132.787 223.406 128.165C217.409 133.183 211.412 138.201 205.414 143.218C201.035 145.844 197.036 149.188 193.419 153.254C191.082 154.292 188.857 155.732 186.742 157.574C186.396 157.063 186.277 156.476 186.386 155.812C191.581 149.513 197.006 143.443 202.663 137.6C208.123 132.384 213.899 127.605 219.99 123.261C218.39 119.315 217.337 115.206 216.829 110.936C216.275 109.683 215.479 108.632 214.441 107.785C216.115 105.751 218.002 103.962 220.098 102.419C220.589 108.572 221.104 114.689 221.644 120.768C225.463 119.248 228.914 117.204 232.001 114.638Z" fill="#B1CF16"/>
<path fill-rule="evenodd" clip-rule="evenodd" d="M237.54 140.003C236.312 141.139 234.977 142.097 233.537 142.877C231.576 142.483 229.788 142.976 228.173 144.355C221.618 146.322 214.899 146.874 208.016 146.011C207.11 145.081 206.202 144.149 205.296 143.218C211.293 138.201 217.291 133.183 223.288 128.165C226.485 132.787 230.229 136.863 234.518 140.393C235.564 140.077 236.572 139.947 237.54 140.003Z" fill="#8AB10F"/>
<path fill-rule="evenodd" clip-rule="evenodd" d="M228.285 144.356C226.818 146.231 225.04 147.664 222.952 148.66C220.558 148.1 218.205 148.246 215.895 149.098C214.929 148.781 214.139 148.202 213.522 147.361C212.858 148.075 212.193 148.79 211.528 149.504C210.394 148.34 209.261 147.177 208.127 146.013C215.011 146.876 221.73 146.324 228.285 144.356Z" fill="#EFF7D0"/>
<path fill-rule="evenodd" clip-rule="evenodd" d="M205.355 143.218C206.261 144.149 207.169 145.08 208.075 146.011C205.823 147.589 203.364 148.325 200.702 148.22C198.258 150.145 195.811 151.824 193.359 153.254C196.976 149.188 200.975 145.843 205.355 143.218Z" fill="#F6F9D3"/>
<path fill-rule="evenodd" clip-rule="evenodd" d="M202.077 134.077C202.314 135.251 202.551 136.426 202.788 137.6C197.132 143.444 191.706 149.513 186.512 155.812C186.403 156.477 186.521 157.064 186.867 157.574C184.671 159.273 182.446 160.713 180.19 161.894C187.059 153.819 193.695 145.732 200.099 137.633C200.758 136.448 201.418 135.262 202.077 134.077Z" fill="#D8E493"/>
<path fill-rule="evenodd" clip-rule="evenodd" d="M200.1 137.631C193.696 145.73 187.06 153.817 180.191 161.892C179.284 160.961 178.377 160.03 177.47 159.099C185.014 151.943 192.556 144.787 200.1 137.631Z" fill="#FBFDE6"/>
<path fill-rule="evenodd" clip-rule="evenodd" d="M442.863 166.683C438.438 163.149 433.578 160.605 428.281 159.054C429.813 158.255 431.401 158.301 433.045 159.193C437.024 160.936 440.297 163.433 442.863 166.683Z" fill="#E0ECA4"/>
<path fill-rule="evenodd" clip-rule="evenodd" d="M443.302 167.271C446.515 169.376 449.321 171.972 451.72 175.058C450.272 175.509 449.993 176.589 450.884 178.297C452.268 179.894 453.857 181.216 455.654 182.263C454.164 182.708 452.669 182.515 451.169 181.682C450.044 179.636 448.92 177.578 447.797 175.506C447.3 173.143 445.989 171.38 443.866 170.213C443.678 169.232 443.49 168.252 443.302 167.271Z" fill="#F2F8CB"/>
<path fill-rule="evenodd" clip-rule="evenodd" d="M442.561 166.683C442.841 166.878 443.122 167.074 443.403 167.27C443.591 168.251 443.779 169.231 443.967 170.212C441.316 168.287 438.838 166.132 436.533 163.749C432.474 162.075 428.41 160.512 424.337 159.06C425.473 157.88 426.687 157.878 427.98 159.054C433.277 160.605 438.136 163.148 442.561 166.683Z" fill="#A9BE44"/>
<path fill-rule="evenodd" clip-rule="evenodd" d="M456.583 182.85C461.958 184.924 466.726 188.252 470.888 192.834C471.9 196.545 472.84 200.175 473.706 203.72C472.394 201.042 470.709 198.592 468.652 196.37C468.283 193.903 467.252 191.698 465.56 189.752C462.765 187.166 459.773 184.866 456.583 182.85Z" fill="#F4FACB"/>
<path fill-rule="evenodd" clip-rule="evenodd" d="M424.634 159.062C424.448 159.356 424.261 159.651 424.075 159.946C421.926 160.145 419.778 160.346 417.63 160.545C419.683 158.579 422.016 158.085 424.634 159.062Z" fill="#CCDD93"/>
<path fill-rule="evenodd" clip-rule="evenodd" d="M448.077 175.504C449.2 177.576 450.324 179.635 451.449 181.68C452.949 182.513 454.443 182.706 455.933 182.261C456.213 182.457 456.494 182.653 456.774 182.849C459.965 184.865 462.957 187.165 465.751 189.751C467.443 191.697 468.474 193.902 468.843 196.369C464.085 189.788 457.914 185.48 450.331 183.448C448.327 181.09 447.575 178.443 448.077 175.504Z" fill="#9DB53D"/>
<path fill-rule="evenodd" clip-rule="evenodd" d="M413.416 161.433C411.706 163.195 409.746 164.375 407.537 164.976C408.952 162.664 410.911 161.483 413.416 161.433Z" fill="#CEE198"/>
<path fill-rule="evenodd" clip-rule="evenodd" d="M444.185 170.214C446.308 171.38 447.618 173.144 448.116 175.506C447.614 178.444 448.365 181.091 450.369 183.449C457.953 185.482 464.124 189.789 468.882 196.37C468.884 197.646 468.885 198.921 468.887 200.197C459.78 195.49 450.157 193.446 440.018 194.063C441.902 190.857 443.812 187.518 445.747 184.046C442.759 186.654 439.728 189.21 436.653 191.714C437.512 185.361 437.503 178.983 436.624 172.581C434.258 174.489 433.655 177.042 434.814 180.237C433.631 185.457 432.565 190.66 431.615 195.843C425.239 202.347 418.337 208.147 410.907 213.244C410.92 204.433 409.972 195.702 408.066 187.052C407.536 185.223 406.414 184.44 404.7 184.703C405.627 189.915 406.523 195.211 407.386 200.593C407.315 205.863 407.463 211.063 407.83 216.193C406.316 209.77 403.42 209.234 399.141 214.589C390.035 213.661 387.225 208.514 390.712 199.149C391.453 198.323 392.292 197.635 393.231 197.084C395.233 190.262 398.399 183.978 402.729 178.23C400.418 177.142 399.855 175.475 401.04 173.229C401.832 174.791 402.954 175.574 404.406 175.578C404.558 174.937 404.556 174.299 404.403 173.665C407.748 170.856 410.779 167.661 413.495 164.083C417.081 162.885 420.581 161.505 423.996 159.945C424.182 159.651 424.369 159.355 424.555 159.061C428.628 160.513 432.692 162.076 436.751 163.75C439.056 166.133 441.534 168.288 444.185 170.214Z" fill="#9CC10A"/>
<path fill-rule="evenodd" clip-rule="evenodd" d="M468.581 200.196C470.773 203.142 471.898 206.476 471.959 210.198C470.945 213.662 470.53 217.195 470.714 220.797C467.582 228.618 462.5 234.415 455.47 238.189C455.072 241.29 453.347 243.058 450.294 243.496C450.2 243.006 450.106 242.515 450.012 242.025C448.159 243.803 446.06 244.886 443.712 245.273C439.042 242.956 434.184 242.327 429.139 243.384C420.791 241.582 416.019 236.341 414.826 227.66C414.345 226.141 413.409 225.063 412.019 224.427C424.929 225.433 437.449 228.651 449.579 234.078C451.403 237.176 453.459 237.761 455.746 235.834C451.443 231.132 446.394 227.608 440.6 225.262C433.853 222.95 427.125 220.803 420.416 218.82C426.234 211.46 432.575 204.631 439.439 198.331C439.807 197.614 439.807 196.976 439.436 196.418C442.61 196.658 445.878 196.604 449.242 196.254C455.694 198.119 462.141 199.433 468.581 200.196Z" fill="#9CC10B"/>
<path fill-rule="evenodd" clip-rule="evenodd" d="M423.848 159.944C420.434 161.504 416.934 162.884 413.348 164.083C410.631 167.66 407.601 170.855 404.256 173.664C404.409 174.298 404.41 174.937 404.259 175.577C402.806 175.573 401.684 174.79 400.893 173.228C403.411 170.827 405.556 168.076 407.325 164.976C409.533 164.375 411.493 163.195 413.203 161.434C414.51 160.647 415.91 160.35 417.405 160.544C419.553 160.344 421.701 160.143 423.848 159.944Z" fill="#8BAF17"/>
<path fill-rule="evenodd" clip-rule="evenodd" d="M407.172 164.976C405.403 168.076 403.258 170.827 400.74 173.228C395.909 178.964 391.529 185.251 387.599 192.089C391.49 183.516 396.521 175.56 402.694 168.221C404.187 167.139 405.679 166.057 407.172 164.976Z" fill="#92AD3C"/>
<path fill-rule="evenodd" clip-rule="evenodd" d="M439.497 196.418C439.868 196.977 439.869 197.614 439.5 198.332C432.636 204.632 426.296 211.461 420.478 218.821C418.728 219.002 416.907 219.005 415.014 218.83C421.114 211.121 427.734 203.85 434.875 197.015C436.473 196.683 438.014 196.484 439.497 196.418Z" fill="#8BB401"/>
<path fill-rule="evenodd" clip-rule="evenodd" d="M468.565 200.196C462.125 199.432 455.679 198.119 449.226 196.254C445.863 196.604 442.594 196.658 439.42 196.417C437.937 196.483 436.396 196.682 434.798 197.014C427.657 203.849 421.037 211.121 414.937 218.829C416.83 219.004 418.651 219.001 420.401 218.82C427.109 220.802 433.837 222.949 440.584 225.262C446.378 227.608 451.427 231.131 455.73 235.834C453.443 237.76 451.387 237.175 449.564 234.078C437.433 228.65 424.914 225.433 412.003 224.426C409.876 223.472 407.868 223.769 405.981 225.32C402.25 228.08 398.845 231.226 395.768 234.756C402.54 239.629 407.966 245.752 412.047 253.126C405.22 247.996 398.302 242.954 391.29 238.001C387.93 241.887 384.199 245.23 380.097 248.028C378.94 248.124 378.101 248.812 377.578 250.092C375.59 250.492 373.677 251.279 371.838 252.457C372.149 251.026 372.754 249.749 373.654 248.627C374.026 248.037 374.399 247.449 374.772 246.859C376.764 245.565 378.35 243.698 379.527 241.259C383.693 239.008 386.817 235.666 388.898 231.235C387.68 227.89 386.32 224.605 384.82 221.381C387.454 222.842 389.558 224.948 391.134 227.699C392.021 227.894 392.91 228.088 393.797 228.283C398.28 224.103 402.85 220.072 407.508 216.192C407.141 211.062 406.993 205.862 407.064 200.592C406.201 195.21 405.305 189.914 404.378 184.702C406.092 184.439 407.214 185.222 407.744 187.051C409.65 195.701 410.598 204.432 410.586 213.243C418.015 208.146 424.917 202.346 431.293 195.842C432.243 190.659 433.309 185.456 434.492 180.236C433.333 177.041 433.936 174.488 436.302 172.58C437.181 178.982 437.19 185.36 436.331 191.713C439.406 189.209 442.437 186.653 445.425 184.045C443.49 187.517 441.58 190.856 439.697 194.062C449.835 193.445 459.458 195.489 468.565 200.196Z" fill="#B1D110"/>
<path fill-rule="evenodd" clip-rule="evenodd" d="M470.847 223.447C469.553 226.769 467.877 230.06 465.819 233.316C463.627 236.758 461.109 239.46 458.266 241.423C462.867 235.76 467.061 229.768 470.847 223.447Z" fill="#EAF6C0"/>
<path fill-rule="evenodd" clip-rule="evenodd" d="M468.576 196.368C470.634 198.59 472.319 201.041 473.631 203.719C473.312 205.578 473.547 207.442 474.34 209.31C473.768 214.152 472.607 218.864 470.859 223.445C467.072 229.766 462.878 235.758 458.277 241.421C453.774 243.586 449.388 246.047 445.119 248.802C444.56 249.686 444.001 250.57 443.442 251.454C442.488 250.486 441.461 250.193 440.359 250.576C440.078 250.38 439.797 250.184 439.517 249.989C440.556 248.011 441.955 246.439 443.713 245.272C446.061 244.885 448.16 243.802 450.012 242.024C450.106 242.514 450.201 243.005 450.295 243.495C453.348 243.057 455.073 241.288 455.47 238.188C462.501 234.414 467.582 228.617 470.714 220.796C470.53 217.194 470.945 213.661 471.959 210.197C471.899 206.475 470.773 203.141 468.582 200.195C468.58 198.919 468.578 197.644 468.576 196.368Z" fill="#9AB439"/>
<path fill-rule="evenodd" clip-rule="evenodd" d="M403.039 168.221C396.866 175.56 391.835 183.516 387.944 192.089C385.501 197.264 383.361 202.566 381.524 207.994C380.962 205.511 380.818 202.862 381.092 200.048C387.053 189.342 393.575 179.03 400.658 169.108C401.404 168.462 402.197 168.167 403.039 168.221Z" fill="#EBF4C7"/>
<path fill-rule="evenodd" clip-rule="evenodd" d="M458.261 241.423C454.792 245.887 450.405 248.349 445.101 248.804C449.37 246.05 453.756 243.588 458.261 241.423Z" fill="#EEF6C4"/>
<path fill-rule="evenodd" clip-rule="evenodd" d="M400.869 173.228C399.683 175.474 400.246 177.141 402.557 178.229C398.227 183.977 395.061 190.261 393.059 197.084C392.12 197.634 391.281 198.322 390.541 199.148C387.053 208.513 389.863 213.66 398.97 214.588C403.248 209.234 406.144 209.769 407.658 216.192C403.001 220.072 398.431 224.103 393.947 228.284C393.06 228.089 392.171 227.894 391.284 227.699C389.708 224.948 387.604 222.842 384.97 221.381C386.47 224.606 387.83 227.891 389.048 231.235C386.967 235.666 383.844 239.008 379.677 241.259C378.708 238.031 379.357 235.087 381.625 232.425C380.783 231.838 379.942 231.25 379.1 230.663C380.22 229.305 380.218 228.03 379.094 226.837C378.765 220.414 379.504 214.133 381.308 207.994C383.145 202.566 385.285 197.264 387.728 192.089C391.658 185.251 396.038 178.964 400.869 173.228Z" fill="#89B208"/>
<path fill-rule="evenodd" clip-rule="evenodd" d="M443.796 245.272C442.038 246.44 440.639 248.011 439.601 249.989C434.019 252.446 428.23 253.928 422.235 254.433C421.1 255.613 419.885 255.615 418.593 254.439C409.991 255.241 401.398 254.765 392.813 253.01C388.924 251.101 384.999 249.636 381.038 248.615C380.758 248.419 380.477 248.223 380.197 248.027C384.299 245.229 388.03 241.886 391.39 238.001C398.402 242.954 405.32 247.995 412.146 253.125C408.066 245.752 402.639 239.628 395.868 234.755C398.945 231.226 402.35 228.08 406.08 225.319C407.968 223.769 409.976 223.471 412.103 224.426C413.493 225.063 414.429 226.14 414.91 227.659C416.103 236.34 420.875 241.581 429.223 243.383C434.268 242.326 439.126 242.955 443.796 245.272Z" fill="#88B20C"/>
<path fill-rule="evenodd" clip-rule="evenodd" d="M439.585 249.99C439.865 250.186 440.146 250.382 440.426 250.578C438.345 251.742 436.291 253.07 434.268 254.562C434.459 259.719 432.965 260.163 429.786 255.894C427.182 255.718 424.659 255.231 422.218 254.435C428.213 253.93 434.002 252.447 439.585 249.99Z" fill="#F3FAD9"/>
<path fill-rule="evenodd" clip-rule="evenodd" d="M381.387 207.995C379.583 214.134 378.844 220.415 379.174 226.837C378.617 228.997 378.059 231.156 377.502 233.316C376.295 232.69 375.499 231.71 375.116 230.376C376.789 226.059 377.156 221.642 376.217 217.129C377.652 213.904 379.375 210.86 381.387 207.995Z" fill="#F2F8CE"/>
<path fill-rule="evenodd" clip-rule="evenodd" d="M378.952 226.836C380.075 228.029 380.078 229.305 378.958 230.663C379.8 231.25 380.641 231.838 381.483 232.425C379.215 235.086 378.566 238.031 379.535 241.259C378.358 243.699 376.772 245.566 374.78 246.86C376.277 245.058 377.115 243.093 377.293 240.969C378.062 238.64 377.871 236.384 376.722 234.199C376.908 233.905 377.095 233.609 377.281 233.315C377.838 231.155 378.395 228.996 378.952 226.836Z" fill="#91B033"/>
<path fill-rule="evenodd" clip-rule="evenodd" d="M418.917 254.439C418.312 255.899 417.286 256.882 415.84 257.387C412.882 256.508 409.987 256.612 407.154 257.696C404.218 256.262 401.228 255.874 398.186 256.534C396.051 256.274 394.182 255.394 392.579 253.894C392.765 253.599 392.951 253.304 393.138 253.01C401.722 254.765 410.316 255.24 418.917 254.439Z" fill="#F1F9D3"/>
<path fill-rule="evenodd" clip-rule="evenodd" d="M392.864 253.011C392.678 253.306 392.491 253.601 392.305 253.895C389.188 253.529 386.29 252.357 383.613 250.377C382.771 249.79 381.93 249.202 381.088 248.615C385.049 249.636 388.975 251.102 392.864 253.011Z" fill="#E0ECA2"/>
<path fill-rule="evenodd" clip-rule="evenodd" d="M377.046 234.2C378.195 236.385 378.386 238.64 377.616 240.969C374.475 245.138 371.399 249.363 368.389 253.641C369.343 254.609 370.371 254.902 371.473 254.519C373.913 253.663 376.059 252.187 377.91 250.093C378.433 248.813 379.272 248.125 380.429 248.029C380.709 248.224 380.99 248.42 381.27 248.616C382.112 249.203 382.953 249.791 383.795 250.378C381.519 253.228 378.815 255.587 375.68 257.456C375.391 256.585 375.343 255.702 375.536 254.807C372.224 256.44 368.77 257.428 365.173 257.768C366.368 252.62 368.648 247.415 372.014 242.156C372.856 242.743 373.697 243.33 374.539 243.918C374.877 240.563 375.713 237.324 377.046 234.2Z" fill="#FAFCE4"/>
<path fill-rule="evenodd" clip-rule="evenodd" d="M377.409 240.968C377.231 243.093 376.394 245.057 374.896 246.86C374.523 247.449 374.151 248.038 373.778 248.628C372.801 248.932 371.961 249.62 371.259 250.693C370.522 252.127 370.524 253.403 371.265 254.519C370.163 254.902 369.135 254.609 368.181 253.641C371.192 249.362 374.267 245.138 377.409 240.968Z" fill="#E5F0A9"/>
<path fill-rule="evenodd" clip-rule="evenodd" d="M377.916 250.093C376.064 252.187 373.918 253.663 371.477 254.52C370.736 253.403 370.734 252.128 371.472 250.693C372.174 249.621 373.013 248.932 373.991 248.628C373.091 249.749 372.485 251.027 372.175 252.458C374.014 251.281 375.927 250.493 377.916 250.093Z" fill="#BDCF56"/>
<path fill-rule="evenodd" clip-rule="evenodd" d="M36.168 139.903C37.4986 139.463 38.8221 139.414 40.1388 139.757C42.9675 141.109 45.4145 142.969 47.4807 145.335C43.4632 144.09 39.6928 142.28 36.168 139.903Z" fill="#E0ED9B"/>
<path fill-rule="evenodd" clip-rule="evenodd" d="M12.866 139.082C11.7097 142.126 10.8213 145.291 10.2009 148.576C15.4601 165.291 21.1135 181.858 27.1615 198.276C25.7449 197.268 24.5714 195.85 23.6407 194.02C16.941 177.837 11.288 161.271 6.68007 144.32C9.16283 143.061 11.2251 141.316 12.866 139.082Z" fill="#F0F4D6"/>
<path fill-rule="evenodd" clip-rule="evenodd" d="M27.1825 198.276C27.5745 198.122 27.9678 197.968 28.3599 197.815C31.0918 204.257 33.8252 210.7 36.5571 217.142C35.3181 216.552 34.2907 215.546 33.4748 214.123C30.9915 209.009 28.8938 203.727 27.1825 198.276Z" fill="#D9ECA8"/>
<path fill-rule="evenodd" clip-rule="evenodd" d="M128.657 203.745C131.498 205.258 133.895 207.605 135.849 210.789C141.46 224.085 146.286 237.689 150.327 251.601C150.12 252.465 149.677 253.107 149 253.529C144.854 235.744 138.073 219.149 128.657 203.745Z" fill="#E8F4BD"/>
<path fill-rule="evenodd" clip-rule="evenodd" d="M113.4 187.183C114.578 186.722 115.755 186.261 116.932 185.8C121.875 190.923 125.785 196.904 128.661 203.744C123.629 198.311 118.543 192.79 113.4 187.183Z" fill="#F3FAD1"/>
<path fill-rule="evenodd" clip-rule="evenodd" d="M36.6769 217.141C39.0582 220.168 41.1597 223.571 42.9804 227.35C46.2074 232.663 49.432 237.973 52.6549 243.282C48.7207 240.829 45.6889 237.321 43.5579 232.758C40.7419 227.825 38.4483 222.618 36.6769 217.141Z" fill="#E5F0B9"/>
<path fill-rule="evenodd" clip-rule="evenodd" d="M149.77 263.108C150.493 270.703 150.479 278.22 149.726 285.661C149.334 285.815 148.941 285.969 148.549 286.122C146.427 278.071 146.834 270.4 149.77 263.108Z" fill="#90AB33"/>
<path fill-rule="evenodd" clip-rule="evenodd" d="M149.517 254.765C150.888 258.012 151.862 261.388 152.438 264.889C151.582 269.092 151.721 273.263 152.855 277.403C151.497 280.136 150.462 282.889 149.751 285.66C150.503 278.219 150.518 270.702 149.794 263.107C149.702 260.326 149.609 257.546 149.517 254.765Z" fill="#EBF7C2"/>
<path fill-rule="evenodd" clip-rule="evenodd" d="M148.398 286.122C148.79 285.969 149.183 285.815 149.575 285.661C151.135 287.999 152.993 290.088 155.151 291.929C157.996 295.899 158.332 299.993 156.156 304.212C154.143 304.305 152.281 304.094 150.57 303.582C152.532 302.814 154.493 302.046 156.456 301.278C154.589 295.723 151.902 290.672 148.398 286.122Z" fill="#F9FCDA"/>
<path fill-rule="evenodd" clip-rule="evenodd" d="M39.9824 139.757C43.449 139.869 46.7315 140.932 49.8281 142.945C49.455 141.065 49.4588 139.186 49.8391 137.306C52.1182 139.385 54.5661 141.243 57.1804 142.883C57.081 143.861 56.98 144.839 56.8806 145.817C59.175 145.014 61.6756 144.504 64.3828 144.289C63.1998 146.642 63.1455 149.01 64.222 151.394C58.5818 151.085 54.126 148.604 50.8555 143.951C49.6782 144.412 48.501 144.873 47.3238 145.334C45.2577 142.968 42.811 141.109 39.9824 139.757Z" fill="#FAFCEA"/>
<path fill-rule="evenodd" clip-rule="evenodd" d="M13.0468 139.081C15.7933 138.006 18.541 136.93 21.2875 135.855C25.9914 137.75 30.9392 139.1 36.131 139.903C39.6556 142.279 43.4256 144.089 47.4428 145.334C48.62 144.873 49.7973 144.412 50.9745 143.951C54.245 148.605 58.7009 151.086 64.341 151.394C66.0253 153.315 67.9339 154.916 70.0664 156.195C68.1597 156.656 66.2966 156.446 64.48 155.565C64.595 160.247 62.6337 161.015 58.5938 157.87C62.4462 154.681 62.0567 152.956 57.4275 152.693C56.4927 153.629 56.0001 154.761 55.9504 156.088C50.9761 148.736 49.2103 149.428 50.6529 158.162C51.8726 162.938 51.7656 167.675 50.3312 172.373C43.0319 164.394 35.7437 156.45 28.468 148.537C28.7115 144.677 27.5414 141.378 24.9582 138.643C19.9735 139.309 16.4417 140.692 14.363 142.791C12.9798 144.527 12.7794 146.483 13.7635 148.66C15.4802 151.542 17.9281 153.4 21.1048 154.237C20.1127 155.934 18.6895 156.96 16.8346 157.317C19.7194 164.535 23.0638 171.441 26.8669 178.038C25.6529 178.864 24.695 179.943 23.9933 181.276C25.9541 182.227 26.4661 183.67 25.5288 185.605C26.8522 185.555 28.1759 185.508 29.4993 185.459C29.0582 187.541 29.3231 189.55 30.2963 191.485C29.263 191.301 28.3821 190.707 27.653 189.703C28.3969 192.521 28.6857 195.225 28.5195 197.814C28.1275 197.968 27.7343 198.122 27.3423 198.275C21.2943 181.858 15.6409 165.29 10.3817 148.576C11.0021 145.29 11.8905 142.126 13.0468 139.081Z" fill="#9FC01A"/>
<path fill-rule="evenodd" clip-rule="evenodd" d="M21.3026 135.856C18.5561 136.931 15.8084 138.007 13.062 139.082C11.421 141.316 9.35875 143.062 6.87599 144.321C11.4839 161.271 17.1369 177.837 23.8366 194.021C24.7674 195.851 25.9408 197.269 27.3574 198.276C29.0687 203.728 31.1663 209.009 33.6495 214.123C34.4653 215.546 35.4927 216.553 36.7316 217.142C38.503 222.619 40.7964 227.826 43.6123 232.759C37.8228 224.874 32.0545 216.804 26.3082 208.547C19.9264 193.588 13.9265 178.565 8.30927 163.479C5.97835 155.514 5.11182 147.402 5.70968 139.144C6.54043 140.227 7.37236 141.31 8.20311 142.393C10.1956 138.897 13.0919 136.355 16.8934 134.765C18.756 134.233 20.2259 134.597 21.3026 135.856Z" fill="#FCFDF0"/>
<path fill-rule="evenodd" clip-rule="evenodd" d="M74.3877 157.287C77.1678 160.123 80.5465 162.088 84.5232 163.18C84.6693 163.592 84.8158 164.005 84.9619 164.417C83.6453 164.073 82.3218 164.122 80.9911 164.563C77.4728 163.527 75.2714 161.101 74.3877 157.287Z" fill="#BACE5F"/>
<path fill-rule="evenodd" clip-rule="evenodd" d="M28.361 148.537C23.5262 144.349 22.6921 145.146 25.8566 150.926C33.0895 159.92 40.4742 168.767 48.0086 177.466C47.7627 178.031 47.516 178.598 47.2701 179.163C41.9736 180.027 36.6798 180.222 31.3883 179.747C30.7492 180.467 30.1117 181.187 29.4726 181.906C35.3024 181.812 40.9621 182.649 46.4512 184.414C49.087 184.527 51.6609 184.223 54.1727 183.503C58.985 191.993 64.9992 199.498 72.2153 206.018C74.3312 208.876 76.0899 211.944 77.491 215.22C68.9141 217.684 60.2347 219.674 51.4529 221.189C49.6388 221.915 48.2157 222.941 47.1826 224.27C43.9946 224.644 43.5559 223.408 45.8664 220.559C36.9268 213.055 31.7004 203.364 30.1892 191.485C29.216 189.55 28.9511 187.541 29.3922 185.459C28.0688 185.508 26.7451 185.555 25.4217 185.605C26.3591 183.67 25.8471 182.227 23.8862 181.276C24.5879 179.943 25.5458 178.864 26.7598 178.038C22.9567 171.441 19.6123 164.534 16.7275 157.317C18.5824 156.96 20.0056 155.934 20.9977 154.237C17.821 153.4 15.3731 151.542 13.6564 148.66C12.6724 146.483 12.8727 144.527 14.256 142.791C16.3347 140.691 19.8664 139.309 24.8511 138.643C27.4343 141.378 28.6044 144.677 28.361 148.537Z" fill="#9DC209"/>
<path fill-rule="evenodd" clip-rule="evenodd" d="M85.2346 164.415C85.0885 164.004 84.942 163.591 84.7959 163.179C87.564 163.17 90.1113 164.05 92.437 165.821C93.1181 164.392 93.0714 163.002 92.2981 161.65C93.4711 160.981 94.7212 160.725 96.0491 160.886C101.163 167.447 102.464 166.703 99.9501 158.654C101.416 160.897 102.882 163.14 104.348 165.383C104.021 167.956 104.04 170.532 104.407 173.107C106.699 176.099 108.726 179.295 110.491 182.697C101.78 177.137 93.3603 171.043 85.2346 164.415Z" fill="#FAFCE9"/>
<path fill-rule="evenodd" clip-rule="evenodd" d="M70.1494 156.197C71.6192 156.561 73.0887 156.923 74.5585 157.287C75.4421 161.101 77.6433 163.526 81.1614 164.562C81.0139 170.552 80.7558 176.756 80.3901 183.174C82.0414 190.728 82.9584 198.351 83.1395 206.042C75.1178 198.74 67.4387 190.949 60.0991 182.667C56.8762 174.274 53.7557 166.105 50.7359 158.163C49.2932 149.429 51.0591 148.738 56.0334 156.089C56.0831 154.763 56.5756 153.63 57.5104 152.694C62.1397 152.958 62.5291 154.683 58.6767 157.871C62.7167 161.017 64.678 160.249 64.5629 155.567C66.3796 156.447 68.2426 156.657 70.1494 156.197Z" fill="#9FC209"/>
<path fill-rule="evenodd" clip-rule="evenodd" d="M81.2844 164.561C82.615 164.12 83.9383 164.071 85.2548 164.415C86.3865 166.917 86.8708 169.545 86.71 172.296C87.4271 173.154 88.3083 173.748 89.3533 174.078C89.9457 171.969 91.123 171.508 92.885 172.696C94.1835 174.489 95.1103 176.474 95.6673 178.649C97.5088 177.627 99.4212 177.348 101.404 177.812C103.215 182.207 105.978 185.586 109.692 187.947C110.775 195.973 113.726 203.033 118.547 209.129C118.994 223.251 120.192 237.335 122.141 251.386C121.716 253.098 120.736 253.482 119.198 252.538C112.919 244.646 106.882 236.446 101.086 227.938C96.8485 225.359 94.1357 221.491 92.9475 216.335C88.446 199.194 84.5577 181.936 81.2844 164.561Z" fill="#9CC20A"/>
<path fill-rule="evenodd" clip-rule="evenodd" d="M85.02 164.415C93.1457 171.042 101.565 177.136 110.276 182.697C110.662 184.798 111.64 186.292 113.208 187.183C118.351 192.789 123.437 198.311 128.469 203.744C137.884 219.148 144.666 235.743 148.811 253.528C148.957 253.94 149.104 254.353 149.25 254.765C149.342 257.546 149.435 260.326 149.528 263.107C145.339 247.86 140.27 232.943 134.322 218.354C131.39 213.868 128.458 209.382 125.525 204.896C124.125 205.277 122.605 205.403 120.966 205.273C120.409 203.098 119.483 201.113 118.184 199.319C118.03 202.631 118.073 205.9 118.312 209.129C113.491 203.033 110.54 195.973 109.457 187.947C105.743 185.585 102.98 182.206 101.169 177.811C99.1864 177.348 97.274 177.626 95.4325 178.648C94.8754 176.474 93.9486 174.488 92.6502 172.695C90.8881 171.508 89.7109 171.969 89.1185 174.078C88.0735 173.748 87.1922 173.153 86.4752 172.296C86.6359 169.544 86.1517 166.917 85.02 164.415Z" fill="#8EB220"/>
<path fill-rule="evenodd" clip-rule="evenodd" d="M28.3117 148.539C35.5873 156.451 42.8755 164.396 50.1749 172.375C51.6093 167.676 51.7162 162.94 50.4965 158.164C53.5164 166.106 56.6368 174.275 59.8598 182.668C67.1994 190.95 74.8785 198.741 82.9002 206.043C82.7191 198.352 81.8021 190.729 80.1507 183.175C80.5165 176.757 80.7745 170.553 80.922 164.562C84.1953 181.938 88.0837 199.195 92.5851 216.336C93.7734 221.492 96.4861 225.36 100.723 227.939C106.52 236.448 112.557 244.648 118.836 252.539C116.873 253.308 114.912 254.075 112.949 254.844C103.347 244.376 94.1046 233.439 85.2219 222.036C77.6371 221.835 70.0882 221.973 62.5765 222.451C60.7152 223.251 59.0955 224.355 57.7176 225.762C55.3249 224.104 52.7283 223.712 49.9266 224.586C49.1563 223.708 48.2258 223.602 47.1334 224.272C48.1665 222.943 49.5896 221.917 51.4036 221.191C60.1855 219.676 68.8649 217.686 77.4418 215.222C76.0407 211.945 74.282 208.878 72.1661 206.02C64.95 199.5 58.9358 191.995 54.1235 183.505C51.6116 184.225 49.0378 184.529 46.4019 184.416C40.9129 182.65 35.2532 181.814 29.4233 181.908C30.0624 181.188 30.7 180.468 31.3391 179.749C36.6305 180.224 41.9243 180.029 47.2209 179.165C47.4668 178.6 47.7134 178.033 47.9594 177.468C40.425 168.769 33.0403 159.922 25.8073 150.928C22.6428 145.148 23.4769 144.351 28.3117 148.539Z" fill="#B9D60E"/>
<path fill-rule="evenodd" clip-rule="evenodd" d="M49.9932 224.585C52.7949 223.711 55.3915 224.103 57.7842 225.761C59.162 224.354 60.7818 223.25 62.643 222.45C70.1547 221.972 77.7036 221.834 85.2884 222.035C94.1711 233.438 103.414 244.375 113.016 254.843C113.309 255.668 113.601 256.491 113.893 257.316C108.315 257.775 102.701 258.329 97.0538 258.979C95.1679 258.074 93.2837 257.169 91.3979 256.264C82.4819 251.476 73.7668 246.437 65.2535 241.147C60.5059 235.171 55.4192 229.65 49.9932 224.585Z" fill="#9CC20A"/>
<path fill-rule="evenodd" clip-rule="evenodd" d="M42.8428 227.352C44.6062 227.447 46.0256 228.3 47.1021 229.909C52.961 240.212 59.7066 249.778 67.3384 258.608C64.8916 256.749 62.4437 254.89 59.997 253.031C57.6997 249.594 55.2062 246.344 52.5167 243.283C49.294 237.974 46.0696 232.664 42.8428 227.352Z" fill="#90AC37"/>
<path fill-rule="evenodd" clip-rule="evenodd" d="M84.6615 273.01C83.7301 272.906 82.7996 272.8 81.8682 272.695C77.6761 269.397 73.7133 265.785 69.9788 261.857C71.1136 261.291 72.2407 261.321 73.3606 261.941C73.46 260.963 73.561 259.985 73.6604 259.007C76.7058 264.304 80.3727 268.971 84.6615 273.01Z" fill="#8BAB2D"/>
<path fill-rule="evenodd" clip-rule="evenodd" d="M120.912 205.275C122.551 205.405 124.071 205.279 125.471 204.899C128.403 209.385 131.335 213.871 134.268 218.357C140.215 232.946 145.285 247.863 149.473 263.11C146.538 270.401 146.131 278.072 148.252 286.124C147.86 286.277 147.467 286.431 147.075 286.585C141.796 280.4 136.809 273.902 132.115 267.089C127.845 246.492 124.11 225.887 120.912 205.275Z" fill="#87B204"/>
<path fill-rule="evenodd" clip-rule="evenodd" d="M30.0889 191.486C31.6001 203.365 36.8265 213.056 45.7661 220.561C43.4555 223.409 43.8943 224.646 47.0823 224.271C48.1746 223.601 49.1052 223.707 49.8755 224.586C55.3016 229.651 60.3883 235.172 65.1359 241.147C73.6491 246.437 82.3643 251.476 91.2802 256.265C93.1661 257.17 95.0503 258.075 96.9361 258.98C102.583 258.33 108.197 257.775 113.776 257.317C114.563 258.942 114.952 260.669 114.942 262.494C104.631 263.754 94.6508 266.488 85.0029 270.694C97.6302 268.454 110.326 267.709 123.091 268.459C130.78 276.183 137.749 284.489 143.997 293.374C140.54 293.501 137.108 293.906 133.701 294.588C132.871 293.504 131.793 292.987 130.469 293.036C130.212 291.482 129.381 290.399 127.976 289.787C120.773 290.89 115.191 288.381 111.228 282.259C110.016 284.49 108.25 285.181 105.93 284.333C106.245 283.235 106.81 282.309 107.626 281.556C104.988 280.731 102.414 281.035 99.905 282.466C93.9046 280.949 88.764 277.797 84.4838 273.01C80.195 268.971 76.5281 264.304 73.4827 259.007C73.3833 259.985 73.2823 260.963 73.1829 261.941C72.0631 261.321 70.9359 261.292 69.8011 261.857C68.6921 261.036 67.8613 259.953 67.3077 258.608C59.6759 249.778 52.9303 240.212 47.0714 229.909C45.9949 228.3 44.5755 227.447 42.8121 227.351C40.9915 223.573 38.8901 220.17 36.509 217.143C33.7772 210.701 31.0438 204.258 28.3121 197.816C28.4783 195.227 28.1894 192.523 27.4455 189.704C28.1747 190.709 29.0555 191.302 30.0889 191.486Z" fill="#88B209"/>
<path fill-rule="evenodd" clip-rule="evenodd" d="M121.148 205.274C124.346 225.886 128.081 246.491 132.351 267.088C137.046 273.901 142.033 280.399 147.311 286.583C149.615 290.353 151.275 294.4 152.287 298.72C151.827 299.96 150.993 300.757 149.783 301.109C149.198 299.461 148.613 297.811 148.028 296.162C147.444 294.24 146.22 293.311 144.357 293.374C138.11 284.489 131.141 276.183 123.452 268.459C110.686 267.709 97.9908 268.454 85.3636 270.694C95.0114 266.488 104.991 263.754 115.303 262.494C115.312 260.669 114.924 258.942 114.136 257.317C113.844 256.492 113.552 255.668 113.259 254.843C115.221 254.075 117.183 253.307 119.145 252.539C120.683 253.483 121.664 253.099 122.088 251.387C120.139 237.336 118.941 223.251 118.494 209.13C118.255 205.901 118.212 202.632 118.366 199.321C119.665 201.114 120.591 203.099 121.148 205.274Z" fill="#AFCF0D"/>
<path fill-rule="evenodd" clip-rule="evenodd" d="M100.094 282.466C102.602 281.034 105.176 280.731 107.815 281.556C106.999 282.309 106.433 283.235 106.119 284.332C108.439 285.18 110.205 284.489 111.416 282.258C115.379 288.38 120.962 290.889 128.165 289.786C129.57 290.398 130.4 291.481 130.658 293.035C128.893 294.104 127.177 294.305 125.51 293.642C119.401 291.919 113.302 289.846 107.216 287.424C104.267 286.535 101.893 284.882 100.094 282.466Z" fill="#90B231"/>
<path fill-rule="evenodd" clip-rule="evenodd" d="M133.901 294.587C137.308 293.906 140.74 293.5 144.198 293.374C146.06 293.31 147.285 294.24 147.869 296.162C143.17 295.645 138.515 295.119 133.901 294.587Z" fill="#E4F1A6"/>
<path fill-rule="evenodd" clip-rule="evenodd" d="M147.221 286.583C147.613 286.429 148.006 286.275 148.398 286.122C151.903 290.671 154.589 295.723 156.457 301.278C154.494 302.046 152.533 302.814 150.57 303.583C150.277 302.758 149.985 301.934 149.692 301.109C150.903 300.756 151.737 299.959 152.197 298.72C151.185 294.399 149.525 290.353 147.221 286.583Z" fill="#C9D87A"/>
</svg>
